# xmcd CD database file
#
# Track frame offsets:
#	182
#	12055
#	24755
#	35790
#	48847
#	59455
#	69312
#	84125
#	94757
#	104002
#	116802
#	129197
#	140662
#	151932
#	166700
#	175277
#	187740
#	202220
#	227385
#	239205
#	276630
#
# Disc length: 3904 seconds
#
# Revision: 0
# Processed by: cddbd v1.4PL0 Copyright (c) Steve Scherf et al.
# Submitted via: CDex 1.40Beta9
#
DISCID=1b0f3e15
DTITLE=Marty Robbins - Country Souvenirs
DYEAR=1900
DGENRE=Country
TTITLE0=Lovesick Blues
TTITLE1=Streets Of Laredo
TTITLE2=Red River Valley
TTITLE3=The Hanging Tree
TTITLE4=Bouquet Of Roses
TTITLE5=Knee Deep In The Blues
TTITLE6=She Thinks I Still Care
TTITLE7=Pain And Misery
TTITLE8=Moanin' The Blues
TTITLE9=It's A Sin
TTITLE10=Smokin' Cigarettes And Drinkin'
TTITLE11=MayBellene
TTITLE12=Kaw-Liga
TTITLE13=Tennessee Toddy
TTITLE14=Im Gonna Be An Cowboy
TTITLE15=Tomorrow You'll Be Gone
TTITLE16=Cool Water
TTITLE17=San Angelo
TTITLE18=The Girl With Gardenias In Her Hair
TTITLE19=Feleena
TTITLE20=Adios Amigo
EXTD=ID3G: 2
EXTT0=
EXTT1=
EXTT2=
EXTT3=
EXTT4=
EXTT5=
EXTT6=
EXTT7=
EXTT8=
EXTT9=
EXTT10=
EXTT11=
EXTT12=
EXTT13=
EXTT14=
EXTT15=
EXTT16=
EXTT17=
EXTT18=
EXTT19=
EXTT20=
PLAYORDER=
